<svg xmlns="http://www.w3.org/2000/svg" xmlns:xlink="http://www.w3.org/1999/xlink" version="1.1" x="0px" y="0px" viewBox="0 0 90 112.5" enable-background="new 0 0 90 90" xml:space="preserve"><path d="M47.5,46.8c-0.7,0.6-1.6,0.9-2.5,0.9s-1.8-0.3-2.5-0.9L20.2,29.6c-0.2,0.3-0.3,0.6-0.3,1v28.9c0,0.9,0.7,1.5,1.5,1.5h47.2  c0.9,0,1.5-0.7,1.5-1.5V30.6c0-0.4-0.1-0.7-0.3-1L47.5,46.8z"/><path d="M45.8,44.6L66.1,29H23.9l20.2,15.6C44.7,45,45.3,45,45.8,44.6z"/><path d="M45,5.5C23.2,5.5,5.5,23.2,5.5,45S23.2,84.5,45,84.5c21.8,0,39.5-17.7,39.5-39.5S66.8,5.5,45,5.5z M72.9,59.4  c0,2.4-1.9,4.3-4.3,4.3H21.4c-2.4,0-4.3-1.9-4.3-4.3V30.6c0-2.4,1.9-4.3,4.3-4.3h47.2c2.4,0,4.3,1.9,4.3,4.3V59.4z"/></svg>