<?xml version="1.0" encoding="utf-8"?>
<!-- Generator: Adobe Illustrator 24.0.1, SVG Export Plug-In . SVG Version: 6.00 Build 0)  -->
<svg version="1.1" id="Layer_2_1_" xmlns="http://www.w3.org/2000/svg" xmlns:xlink="http://www.w3.org/1999/xlink" x="0px" y="0px"
	 viewBox="0 0 139.2 125.9" style="enable-background:new 0 0 139.2 125.9;" xml:space="preserve">
<style type="text/css">
	.st0{fill-rule:evenodd;clip-rule:evenodd;}
</style>
<path class="st0" d="M70.9,55.5c7-2,18,1,25,13c11-8,34-10,40,8c6,20-17,37-32,34c-3,10-18,15-27,10c-11,9-38,8-44-12
	c-5-17,13-29,25-29C57.9,66.5,64.9,57.5,70.9,55.5z"/>
<ellipse transform="matrix(0.816 -0.578 0.578 0.816 -13.3407 31.9024)" cx="43.4" cy="36.9" rx="17" ry="24"/>
<ellipse cx="84.1" cy="24" rx="17" ry="24"/>
<ellipse transform="matrix(0.7342 -0.6789 0.6789 0.7342 -43.382 31.4657)" cx="18.5" cy="71.1" rx="15.1" ry="21.8"/>
<ellipse transform="matrix(0.1305 -0.9914 0.9914 0.1305 70.4621 155.6315)" cx="124" cy="37.6" rx="21.8" ry="15.1"/>
</svg>
