<?xml version="1.0" encoding="utf-8"?>
<!-- Generator: Adobe Illustrator 24.0.1, SVG Export Plug-In . SVG Version: 6.00 Build 0)  -->
<svg version="1.1" id="Layer_1" xmlns="http://www.w3.org/2000/svg" xmlns:xlink="http://www.w3.org/1999/xlink" x="0px" y="0px"
	 viewBox="0 0 141.7 123.8" style="enable-background:new 0 0 141.7 123.8;" xml:space="preserve">
<style type="text/css">
	.st0{fill-rule:evenodd;clip-rule:evenodd;}
</style>
<path class="st0" d="M69.1,53.8c6,2,15,10,15,23c13-1,34,9,30,28c-5,20-33,24-44,13c-8,7-24,4-29-5c-14,3-36-12-32-32
	c4-18,25-19,37-13C52.1,56.8,62.1,52.8,69.1,53.8z"/>
<ellipse transform="matrix(0.9959 -9.045877e-02 9.045877e-02 0.9959 -1.9441 5.0077)" cx="54.3" cy="24" rx="17" ry="24"/>
<ellipse transform="matrix(0.5024 -0.8646 0.8646 0.5024 19.0737 99.4054)" cx="95.9" cy="33.1" rx="24" ry="17"/>
<ellipse transform="matrix(0.9757 -0.219 0.219 0.9757 -8.6029 4.3938)" cx="15.5" cy="41" rx="15.1" ry="21.8"/>
<ellipse transform="matrix(0.6103 -0.7922 0.7922 0.6103 -3.2253 123.4107)" cx="123.8" cy="65" rx="21.8" ry="15.1"/>
</svg>
