<svg xmlns="http://www.w3.org/2000/svg" xmlns:xlink="http://www.w3.org/1999/xlink" version="1.1" x="0px" y="0px" viewBox="0 0 100 125" style="enable-background:new 0 0 100 100;" xml:space="preserve"><style type="text/css">
	.st0{fill:#010101;}
</style><path class="st0" d="M50.6,59.1L69.4,78c1.1,1.1,2.5,1.6,4,1.6c1.5,0,2.9-0.6,4-1.6c1.1-1.1,1.6-2.5,1.6-4c0-1.5-0.6-2.9-1.6-4  L58.5,51.2l18.9-18.9c1.1-1.1,1.6-2.5,1.6-4c0-1.5-0.6-2.9-1.6-4c-1.1-1.1-2.5-1.6-4-1.6c-1.5,0-2.9,0.6-4,1.6L50.6,43.2l-18-18  c-1.1-1.1-2.5-1.6-4-1.6c0,0,0,0,0,0c-1.5,0-2.9,0.6-4,1.6c-1.1,1.1-1.6,2.5-1.6,4c0,1.5,0.6,2.9,1.6,4l18,18l-18,18  c-1.1,1.1-1.6,2.5-1.6,4c0,1.5,0.6,2.9,1.6,4c2,2,5.9,2,7.9,0L50.6,59.1"/></svg>